<svg width="33" height="54" viewBox="0 0 33 54" fill="none" xmlns="http://www.w3.org/2000/svg">
<rect width="7" height="5" transform="matrix(1 0 0 -1 8 54)" fill="#00FF29"/>
<rect width="7" height="35" transform="matrix(1 0 0 -1 8 45)" fill="#00C11F"/>
<rect width="7" height="5" transform="matrix(1 0 0 -1 8 5)" fill="#00FF29"/>
<path d="M12.608 50.592C10.0907 50.592 8.02138 50.4213 6.39998 50.08C4.77868 49.7813 3.47733 49.3333 2.496 48.736C1.55733 48.096 0.896 47.3067 0.512 46.368C0.17067 45.4293 0 44.32 0 43.04C0 42.656 0.0213297 42.1227 0.0639997 41.44C0.10667 40.7147 0.17067 39.712 0.256 38.432C0.34133 37.152 0.448 35.5093 0.576 33.504C0.74667 31.456 0.96 28.896 1.216 25.824C1.51467 22.0267 1.74933 19.0187 1.92 16.8C2.09067 14.5813 2.21867 12.8747 2.304 11.68C2.38933 10.4427 2.432 9.5893 2.432 9.12C2.47467 8.608 2.496 8.1813 2.496 7.84C2.496 7.1573 2.496 6.6027 2.496 6.176C2.53867 5.7493 2.58133 5.4293 2.624 5.216C2.70933 4.96 2.816 4.7893 2.944 4.704C3.11467 4.576 3.34933 4.512 3.648 4.512C6.16538 4.3413 8.29868 4.2133 10.048 4.128C11.84 4.0427 13.3974 4 14.72 4C17.9627 4 20.736 4.2773 23.04 4.832C25.3867 5.344 27.2854 6.0907 28.736 7.072C30.1867 8.0533 31.2534 9.2693 31.936 10.72C32.6187 12.1707 32.96 13.8133 32.96 15.648C32.96 16.672 32.8534 17.7387 32.64 18.848C32.4267 19.9147 32.064 20.9387 31.552 21.92C31.04 22.9013 30.336 23.776 29.44 24.544C28.5867 25.2693 27.4987 25.8027 26.176 26.144C28.6507 26.912 30.4 28.192 31.424 29.984C32.448 31.7333 32.96 33.824 32.96 36.256C32.96 38.2187 32.64 40.0747 32 41.824C31.36 43.5307 30.2507 45.0453 28.672 46.368C27.0934 47.648 25.0027 48.672 22.4 49.44C19.7974 50.208 16.5334 50.592 12.608 50.592ZM16.256 30.752C15.7867 30.752 15.2107 30.7947 14.528 30.88C13.8454 30.9227 13.1414 31.008 12.416 31.136L11.712 41.568C13.248 42.0373 14.6347 42.272 15.872 42.272C17.1947 42.272 18.2614 42.08 19.072 41.696C19.8827 41.312 20.5014 40.8427 20.928 40.288C21.3974 39.6907 21.696 39.0507 21.824 38.368C21.9947 37.6427 22.08 36.9813 22.08 36.384C22.08 34.8053 21.632 33.4827 20.736 32.416C19.8827 31.3067 18.3894 30.752 16.256 30.752ZM13.568 13.152C13.4827 14.2613 13.3974 15.5627 13.312 17.056C13.2694 18.5493 13.184 20.1707 13.056 21.92C14.4214 22.2613 15.6374 22.432 16.704 22.432C17.984 22.432 19.008 22.2827 19.776 21.984C20.544 21.6853 21.1414 21.3013 21.568 20.832C22.0374 20.3627 22.336 19.8507 22.464 19.296C22.6347 18.7413 22.72 18.208 22.72 17.696C22.72 16.3733 22.272 15.2427 21.376 14.304C20.5227 13.3227 19.0294 12.832 16.896 12.832C16.4267 12.832 15.8934 12.8747 15.296 12.96C14.7414 13.0027 14.1654 13.0667 13.568 13.152Z" fill="white"/>
</svg>
